<?xml version="1.0" standalone="no"?>
<!DOCTYPE svg PUBLIC "-//W3C//DTD SVG 20010904//EN"
 "http://www.w3.org/TR/2001/REC-SVG-20010904/DTD/svg10.dtd">
<svg version="1.0" xmlns="http://www.w3.org/2000/svg"
 width="159px" height="112px" viewBox="0 0 776.000000 355.000000"
 preserveAspectRatio="xMidYMid meet">

<g transform="translate(0.000000,355.000000) scale(0.100000,-0.100000)"
fill="#000000" stroke="none">
<path d="M1665 3534 c-178 -30 -373 -104 -501 -191 -329 -224 -502 -623 -464
-1069 34 -392 163 -737 420 -1124 86 -129 100 -153 100 -173 0 -8 -22 -40 -50
-71 -27 -31 -50 -61 -50 -65 0 -19 36 -34 206 -86 386 -119 394 -120 394 -69
0 39 -118 545 -131 561 -17 20 -30 16 -78 -22 -24 -19 -52 -35 -62 -35 -25 0
-92 88 -183 240 -132 221 -228 451 -271 650 -25 115 -30 355 -11 472 50 304
212 519 490 648 108 51 181 69 301 76 219 14 408 -56 574 -211 133 -125 204
-258 243 -456 16 -82 27 -116 45 -133 24 -24 163 -66 217 -66 l29 0 -6 108
c-11 191 -71 376 -179 549 -72 118 -218 265 -327 331 -206 126 -469 176 -706
136z"/>
<path d="M1492 2508 c-232 -215 -372 -353 -372 -368 0 -10 12 -22 28 -29 60
-24 520 -161 540 -161 25 0 30 17 34 100 4 79 8 80 269 80 340 0 550 -29 759
-107 371 -138 580 -334 662 -620 19 -66 23 -102 23 -238 -1 -191 -13 -252 -86
-403 -43 -89 -62 -115 -137 -190 -94 -94 -164 -141 -270 -179 -198 -72 -375
-69 -570 12 -130 55 -118 56 -205 -26 -85 -79 -101 -101 -92 -128 6 -21 72
-58 175 -99 434 -171 943 -50 1217 288 112 139 202 350 239 560 24 140 15 345
-20 463 -96 321 -333 588 -659 742 -334 159 -726 224 -1169 195 l-201 -14 -22
27 c-13 14 -26 45 -30 69 -9 54 -22 78 -41 78 -8 0 -41 -24 -72 -52z"/>
<path d="M4653 2005 c-90 -20 -146 -47 -204 -102 -89 -83 -126 -193 -108 -321
25 -173 107 -229 448 -307 252 -58 289 -84 283 -199 -3 -45 -68 -102 -135
-116 -86 -20 -223 -9 -277 20 -46 26 -87 76 -96 119 -3 14 -7 32 -10 39 -2 9
-35 12 -117 12 -63 0 -116 -2 -119 -5 -11 -12 14 -129 38 -176 73 -146 234
-222 469 -222 184 0 283 32 381 124 77 73 109 150 108 259 -1 104 -27 171 -88
228 -56 52 -142 85 -341 132 -93 22 -191 47 -217 56 -65 21 -98 62 -98 121 0
39 5 51 38 83 48 48 103 64 207 58 124 -7 192 -51 215 -139 l11 -39 120 0 120
0 -6 48 c-10 69 -57 164 -106 211 -52 51 -163 106 -243 120 -79 14 -196 13
-273 -4z"/>
<path d="M5950 1380 l0 -610 120 0 120 0 0 610 0 610 -120 0 -120 0 0 -610z"/>
<path d="M6905 1978 c-3 -7 -4 -281 -3 -608 l3 -595 428 -3 427 -2 0 110 0
110 -305 0 -305 0 0 500 0 500 -120 0 c-87 0 -122 -3 -125 -12z"/>
<path d="M5480 895 l0 -125 120 0 120 0 0 125 0 125 -120 0 -120 0 0 -125z"/>
<path d="M6410 895 l0 -126 123 3 122 3 3 123 3 122 -126 0 -125 0 0 -125z"/>
<path d="M6945 705 c-46 -45 -27 -88 46 -110 62 -18 79 -31 79 -59 0 -32 -19
-46 -60 -46 -36 0 -70 23 -70 48 0 7 -4 12 -10 12 -5 0 -10 -9 -10 -20 0 -59
107 -84 155 -35 46 45 23 95 -52 114 -46 12 -83 35 -83 53 0 18 41 48 65 48
15 0 36 -11 49 -25 25 -27 36 -31 36 -15 0 25 -50 60 -85 60 -25 0 -44 -8 -60
-25z"/>
<path d="M7170 608 c-24 -62 -45 -119 -48 -127 -3 -8 0 -12 8 -9 8 2 19 20 25
39 11 33 13 34 71 37 l59 3 19 -43 c10 -24 20 -37 23 -31 2 7 -15 65 -39 128
-30 80 -48 115 -59 115 -11 0 -29 -34 -59 -112z m83 29 c9 -30 17 -57 17 -60
0 -4 -21 -7 -46 -7 -40 0 -45 2 -39 18 4 9 14 36 22 60 8 23 18 42 22 42 4 0
15 -24 24 -53z"/>
<path d="M7370 594 c0 -96 3 -125 13 -122 7 3 13 27 15 61 l3 57 40 0 c58 0
79 -14 79 -55 0 -40 8 -65 22 -65 13 0 3 97 -12 115 -7 9 -6 16 5 25 20 16 19
74 -1 94 -11 12 -36 16 -90 16 l-74 0 0 -126z m148 94 c7 -7 12 -21 12 -33 0
-33 -20 -45 -77 -45 l-53 0 0 45 0 45 53 0 c29 0 58 -5 65 -12z"/>
<path d="M7602 598 l3 -123 78 -3 c48 -2 77 1 77 8 0 6 -27 10 -65 10 l-65 0
0 115 c0 97 -2 115 -15 115 -13 0 -15 -18 -13 -122z"/>
</g>
</svg>
